<mxfile host="app.diagrams.net" agent="Mozilla/5.0 (Windows NT 10.0; Win64; x64) AppleWebKit/537.36 (KHTML, like Gecko) Chrome/134.0.0.0 Safari/537.36 Edg/134.0.0.0" version="26.2.9">
  <diagram name="第 1 页" id="iTj6fUrBqfIegktuvN6F">
    <mxGraphModel dx="682" dy="240" grid="1" gridSize="10" guides="1" tooltips="1" connect="1" arrows="1" fold="1" page="1" pageScale="1" pageWidth="255" pageHeight="165" math="0" shadow="0">
      <root>
        <mxCell id="0" />
        <mxCell id="1" parent="0" />
        <mxCell id="1f6SnXbmrZFH42KmdfTv-1" value="" style="endArrow=none;html=1;rounded=0;strokeColor=#003366;" edge="1" parent="1">
          <mxGeometry width="50" height="50" relative="1" as="geometry">
            <mxPoint x="72" y="248" as="sourcePoint" />
            <mxPoint x="82" y="248" as="targetPoint" />
          </mxGeometry>
        </mxCell>
        <mxCell id="1f6SnXbmrZFH42KmdfTv-2" value="" style="endArrow=none;html=1;rounded=0;strokeColor=#003366;" edge="1" parent="1">
          <mxGeometry width="50" height="50" relative="1" as="geometry">
            <mxPoint x="82" y="248" as="sourcePoint" />
            <mxPoint x="82" y="218" as="targetPoint" />
          </mxGeometry>
        </mxCell>
        <mxCell id="1f6SnXbmrZFH42KmdfTv-3" value="" style="endArrow=none;html=1;rounded=0;strokeColor=#003366;" edge="1" parent="1">
          <mxGeometry width="50" height="50" relative="1" as="geometry">
            <mxPoint x="82" y="218" as="sourcePoint" />
            <mxPoint x="192" y="218" as="targetPoint" />
            <Array as="points">
              <mxPoint x="192" y="218" />
              <mxPoint x="272" y="218" />
            </Array>
          </mxGeometry>
        </mxCell>
        <mxCell id="1f6SnXbmrZFH42KmdfTv-4" value="" style="endArrow=none;html=1;rounded=0;strokeColor=#003366;" edge="1" parent="1">
          <mxGeometry width="50" height="50" relative="1" as="geometry">
            <mxPoint x="272" y="248" as="sourcePoint" />
            <mxPoint x="382" y="248" as="targetPoint" />
            <Array as="points">
              <mxPoint x="382" y="248" />
              <mxPoint x="452" y="248" />
            </Array>
          </mxGeometry>
        </mxCell>
        <mxCell id="1f6SnXbmrZFH42KmdfTv-5" value="" style="endArrow=none;html=1;rounded=0;strokeColor=#003366;" edge="1" parent="1">
          <mxGeometry width="50" height="50" relative="1" as="geometry">
            <mxPoint x="452" y="218" as="sourcePoint" />
            <mxPoint x="462" y="218" as="targetPoint" />
          </mxGeometry>
        </mxCell>
        <mxCell id="1f6SnXbmrZFH42KmdfTv-6" value="&lt;font style=&quot;font-size: 10px;&quot;&gt;Clock&lt;/font&gt;" style="text;html=1;align=center;verticalAlign=middle;resizable=0;points=[];autosize=1;strokeColor=none;fillColor=none;fontFamily=Times New Roman;fontSize=10;" vertex="1" parent="1">
          <mxGeometry x="22" y="232" width="50" height="30" as="geometry" />
        </mxCell>
        <mxCell id="1f6SnXbmrZFH42KmdfTv-7" value="&lt;font style=&quot;font-size: 10px;&quot;&gt;Data In&lt;/font&gt;" style="text;html=1;align=center;verticalAlign=middle;resizable=0;points=[];autosize=1;strokeColor=none;fillColor=none;fontFamily=Times New Roman;fontSize=10;" vertex="1" parent="1">
          <mxGeometry x="17" y="262" width="60" height="30" as="geometry" />
        </mxCell>
        <mxCell id="1f6SnXbmrZFH42KmdfTv-8" value="" style="endArrow=none;html=1;rounded=0;strokeColor=#336699;" edge="1" parent="1">
          <mxGeometry width="50" height="50" relative="1" as="geometry">
            <mxPoint x="72" y="278" as="sourcePoint" />
            <mxPoint x="112" y="278" as="targetPoint" />
          </mxGeometry>
        </mxCell>
        <mxCell id="1f6SnXbmrZFH42KmdfTv-9" value="" style="endArrow=none;html=1;rounded=0;strokeColor=#003366;" edge="1" parent="1">
          <mxGeometry width="50" height="50" relative="1" as="geometry">
            <mxPoint x="272" y="248" as="sourcePoint" />
            <mxPoint x="272" y="218" as="targetPoint" />
          </mxGeometry>
        </mxCell>
        <mxCell id="1f6SnXbmrZFH42KmdfTv-10" value="" style="endArrow=none;html=1;rounded=0;strokeColor=#003366;" edge="1" parent="1">
          <mxGeometry width="50" height="50" relative="1" as="geometry">
            <mxPoint x="452" y="248" as="sourcePoint" />
            <mxPoint x="452" y="218" as="targetPoint" />
          </mxGeometry>
        </mxCell>
        <mxCell id="1f6SnXbmrZFH42KmdfTv-11" value="" style="endArrow=none;html=1;rounded=0;strokeColor=#336699;" edge="1" parent="1">
          <mxGeometry width="50" height="50" relative="1" as="geometry">
            <mxPoint x="112" y="308" as="sourcePoint" />
            <mxPoint x="112" y="278" as="targetPoint" />
          </mxGeometry>
        </mxCell>
        <mxCell id="1f6SnXbmrZFH42KmdfTv-12" value="" style="endArrow=none;html=1;rounded=0;" edge="1" parent="1">
          <mxGeometry width="50" height="50" relative="1" as="geometry">
            <mxPoint x="142" y="308" as="sourcePoint" />
            <mxPoint x="142" y="278" as="targetPoint" />
          </mxGeometry>
        </mxCell>
        <mxCell id="1f6SnXbmrZFH42KmdfTv-13" value="" style="endArrow=none;html=1;rounded=0;strokeColor=#336699;" edge="1" parent="1">
          <mxGeometry width="50" height="50" relative="1" as="geometry">
            <mxPoint x="112" y="308" as="sourcePoint" />
            <mxPoint x="142" y="308" as="targetPoint" />
          </mxGeometry>
        </mxCell>
        <mxCell id="1f6SnXbmrZFH42KmdfTv-14" value="" style="endArrow=none;html=1;rounded=0;strokeColor=#336699;" edge="1" parent="1">
          <mxGeometry width="50" height="50" relative="1" as="geometry">
            <mxPoint x="142" y="278" as="sourcePoint" />
            <mxPoint x="202" y="278" as="targetPoint" />
          </mxGeometry>
        </mxCell>
        <mxCell id="1f6SnXbmrZFH42KmdfTv-15" value="" style="endArrow=none;html=1;rounded=0;strokeColor=#336699;" edge="1" parent="1">
          <mxGeometry width="50" height="50" relative="1" as="geometry">
            <mxPoint x="202" y="308" as="sourcePoint" />
            <mxPoint x="322" y="308" as="targetPoint" />
          </mxGeometry>
        </mxCell>
        <mxCell id="1f6SnXbmrZFH42KmdfTv-16" value="" style="endArrow=none;html=1;rounded=0;strokeColor=#336699;" edge="1" parent="1">
          <mxGeometry width="50" height="50" relative="1" as="geometry">
            <mxPoint x="202" y="308" as="sourcePoint" />
            <mxPoint x="202" y="278" as="targetPoint" />
          </mxGeometry>
        </mxCell>
        <mxCell id="1f6SnXbmrZFH42KmdfTv-17" value="" style="endArrow=none;html=1;rounded=0;strokeColor=#336699;" edge="1" parent="1">
          <mxGeometry width="50" height="50" relative="1" as="geometry">
            <mxPoint x="321.8" y="308" as="sourcePoint" />
            <mxPoint x="321.8" y="278" as="targetPoint" />
          </mxGeometry>
        </mxCell>
        <mxCell id="1f6SnXbmrZFH42KmdfTv-18" value="" style="endArrow=none;html=1;rounded=0;strokeColor=#336699;" edge="1" parent="1">
          <mxGeometry width="50" height="50" relative="1" as="geometry">
            <mxPoint x="322" y="278" as="sourcePoint" />
            <mxPoint x="382" y="278" as="targetPoint" />
          </mxGeometry>
        </mxCell>
        <mxCell id="1f6SnXbmrZFH42KmdfTv-19" value="" style="endArrow=none;html=1;rounded=0;strokeColor=#336699;" edge="1" parent="1">
          <mxGeometry width="50" height="50" relative="1" as="geometry">
            <mxPoint x="382" y="308" as="sourcePoint" />
            <mxPoint x="382" y="278" as="targetPoint" />
          </mxGeometry>
        </mxCell>
        <mxCell id="1f6SnXbmrZFH42KmdfTv-20" value="" style="endArrow=none;html=1;rounded=0;strokeColor=#336699;" edge="1" parent="1">
          <mxGeometry width="50" height="50" relative="1" as="geometry">
            <mxPoint x="382" y="308" as="sourcePoint" />
            <mxPoint x="462" y="308" as="targetPoint" />
          </mxGeometry>
        </mxCell>
        <mxCell id="1f6SnXbmrZFH42KmdfTv-21" value="" style="endArrow=none;dashed=1;html=1;rounded=0;" edge="1" parent="1">
          <mxGeometry width="50" height="50" relative="1" as="geometry">
            <mxPoint x="82" y="388" as="sourcePoint" />
            <mxPoint x="82" y="198" as="targetPoint" />
          </mxGeometry>
        </mxCell>
        <mxCell id="1f6SnXbmrZFH42KmdfTv-22" value="" style="endArrow=none;dashed=1;html=1;rounded=0;" edge="1" parent="1">
          <mxGeometry width="50" height="50" relative="1" as="geometry">
            <mxPoint x="102" y="388" as="sourcePoint" />
            <mxPoint x="102" y="238" as="targetPoint" />
          </mxGeometry>
        </mxCell>
        <mxCell id="1f6SnXbmrZFH42KmdfTv-23" value="" style="endArrow=none;dashed=1;html=1;rounded=0;" edge="1" parent="1">
          <mxGeometry width="50" height="50" relative="1" as="geometry">
            <mxPoint x="142" y="388" as="sourcePoint" />
            <mxPoint x="142" y="238" as="targetPoint" />
          </mxGeometry>
        </mxCell>
        <mxCell id="1f6SnXbmrZFH42KmdfTv-24" value="" style="endArrow=none;dashed=1;html=1;rounded=0;" edge="1" parent="1">
          <mxGeometry width="50" height="50" relative="1" as="geometry">
            <mxPoint x="162" y="388" as="sourcePoint" />
            <mxPoint x="162" y="238" as="targetPoint" />
          </mxGeometry>
        </mxCell>
        <mxCell id="1f6SnXbmrZFH42KmdfTv-25" value="" style="endArrow=none;dashed=1;html=1;rounded=0;" edge="1" parent="1">
          <mxGeometry width="50" height="50" relative="1" as="geometry">
            <mxPoint x="250" y="388" as="sourcePoint" />
            <mxPoint x="250" y="238" as="targetPoint" />
          </mxGeometry>
        </mxCell>
        <mxCell id="1f6SnXbmrZFH42KmdfTv-26" value="" style="endArrow=none;dashed=1;html=1;rounded=0;" edge="1" parent="1">
          <mxGeometry width="50" height="50" relative="1" as="geometry">
            <mxPoint x="272" y="388" as="sourcePoint" />
            <mxPoint x="272" y="198" as="targetPoint" />
          </mxGeometry>
        </mxCell>
        <mxCell id="1f6SnXbmrZFH42KmdfTv-27" value="" style="endArrow=none;dashed=1;html=1;rounded=0;" edge="1" parent="1">
          <mxGeometry width="50" height="50" relative="1" as="geometry">
            <mxPoint x="302" y="388" as="sourcePoint" />
            <mxPoint x="302" y="238" as="targetPoint" />
          </mxGeometry>
        </mxCell>
        <mxCell id="1f6SnXbmrZFH42KmdfTv-28" value="" style="endArrow=none;dashed=1;html=1;rounded=0;" edge="1" parent="1">
          <mxGeometry width="50" height="50" relative="1" as="geometry">
            <mxPoint x="452" y="388" as="sourcePoint" />
            <mxPoint x="452" y="198" as="targetPoint" />
          </mxGeometry>
        </mxCell>
        <mxCell id="1f6SnXbmrZFH42KmdfTv-29" value="" style="endArrow=classic;startArrow=classic;html=1;rounded=0;endSize=3;startSize=3;" edge="1" parent="1">
          <mxGeometry width="50" height="50" relative="1" as="geometry">
            <mxPoint x="82" y="204" as="sourcePoint" />
            <mxPoint x="272" y="204" as="targetPoint" />
          </mxGeometry>
        </mxCell>
        <mxCell id="1f6SnXbmrZFH42KmdfTv-30" value="" style="endArrow=classic;startArrow=classic;html=1;rounded=0;endSize=3;startSize=3;" edge="1" parent="1">
          <mxGeometry width="50" height="50" relative="1" as="geometry">
            <mxPoint x="82" y="212" as="sourcePoint" />
            <mxPoint x="453" y="212" as="targetPoint" />
          </mxGeometry>
        </mxCell>
        <mxCell id="1f6SnXbmrZFH42KmdfTv-31" value="" style="endArrow=none;html=1;rounded=0;strokeColor=#66A3D2;" edge="1" parent="1">
          <mxGeometry width="50" height="50" relative="1" as="geometry">
            <mxPoint x="102" y="338" as="sourcePoint" />
            <mxPoint x="122" y="338" as="targetPoint" />
          </mxGeometry>
        </mxCell>
        <mxCell id="1f6SnXbmrZFH42KmdfTv-32" value="" style="endArrow=none;html=1;rounded=0;strokeColor=#66A3D2;" edge="1" parent="1">
          <mxGeometry width="50" height="50" relative="1" as="geometry">
            <mxPoint x="122" y="368" as="sourcePoint" />
            <mxPoint x="122" y="338" as="targetPoint" />
          </mxGeometry>
        </mxCell>
        <mxCell id="1f6SnXbmrZFH42KmdfTv-33" value="" style="endArrow=none;html=1;rounded=0;strokeColor=#66A3D2;" edge="1" parent="1">
          <mxGeometry width="50" height="50" relative="1" as="geometry">
            <mxPoint x="162" y="368" as="sourcePoint" />
            <mxPoint x="162" y="338" as="targetPoint" />
          </mxGeometry>
        </mxCell>
        <mxCell id="1f6SnXbmrZFH42KmdfTv-34" value="" style="endArrow=none;html=1;rounded=0;strokeColor=#66A3D2;" edge="1" parent="1">
          <mxGeometry width="50" height="50" relative="1" as="geometry">
            <mxPoint x="122" y="368" as="sourcePoint" />
            <mxPoint x="162" y="368" as="targetPoint" />
          </mxGeometry>
        </mxCell>
        <mxCell id="1f6SnXbmrZFH42KmdfTv-35" value="" style="endArrow=none;html=1;rounded=0;strokeColor=#66A3D2;" edge="1" parent="1">
          <mxGeometry width="50" height="50" relative="1" as="geometry">
            <mxPoint x="162" y="338" as="sourcePoint" />
            <mxPoint x="222" y="338" as="targetPoint" />
          </mxGeometry>
        </mxCell>
        <mxCell id="1f6SnXbmrZFH42KmdfTv-36" value="" style="endArrow=none;html=1;rounded=0;strokeColor=#66A3D2;" edge="1" parent="1">
          <mxGeometry width="50" height="50" relative="1" as="geometry">
            <mxPoint x="222" y="368" as="sourcePoint" />
            <mxPoint x="463" y="368" as="targetPoint" />
          </mxGeometry>
        </mxCell>
        <mxCell id="1f6SnXbmrZFH42KmdfTv-37" value="" style="endArrow=none;html=1;rounded=0;strokeColor=#66A3D2;" edge="1" parent="1">
          <mxGeometry width="50" height="50" relative="1" as="geometry">
            <mxPoint x="222" y="368" as="sourcePoint" />
            <mxPoint x="222" y="338" as="targetPoint" />
          </mxGeometry>
        </mxCell>
        <mxCell id="1f6SnXbmrZFH42KmdfTv-38" value="" style="endArrow=none;html=1;rounded=0;" edge="1" parent="1">
          <mxGeometry width="50" height="50" relative="1" as="geometry">
            <mxPoint x="102" y="368" as="sourcePoint" />
            <mxPoint x="102" y="338" as="targetPoint" />
          </mxGeometry>
        </mxCell>
        <mxCell id="1f6SnXbmrZFH42KmdfTv-39" value="" style="endArrow=none;html=1;rounded=0;strokeColor=#66A3D2;" edge="1" parent="1">
          <mxGeometry width="50" height="50" relative="1" as="geometry">
            <mxPoint x="72" y="367" as="sourcePoint" />
            <mxPoint x="102" y="367" as="targetPoint" />
          </mxGeometry>
        </mxCell>
        <mxCell id="1f6SnXbmrZFH42KmdfTv-40" value="" style="endArrow=classic;html=1;rounded=0;endSize=3;" edge="1" parent="1">
          <mxGeometry width="50" height="50" relative="1" as="geometry">
            <mxPoint x="112" y="318" as="sourcePoint" />
            <mxPoint x="102" y="318" as="targetPoint" />
          </mxGeometry>
        </mxCell>
        <mxCell id="1f6SnXbmrZFH42KmdfTv-41" value="" style="endArrow=classic;html=1;rounded=0;endSize=3;" edge="1" parent="1">
          <mxGeometry width="50" height="50" relative="1" as="geometry">
            <mxPoint x="22" y="318" as="sourcePoint" />
            <mxPoint x="82" y="318" as="targetPoint" />
          </mxGeometry>
        </mxCell>
        <mxCell id="1f6SnXbmrZFH42KmdfTv-42" value="" style="endArrow=none;html=1;rounded=0;" edge="1" parent="1">
          <mxGeometry width="50" height="50" relative="1" as="geometry">
            <mxPoint x="82" y="318" as="sourcePoint" />
            <mxPoint x="102" y="318" as="targetPoint" />
          </mxGeometry>
        </mxCell>
        <mxCell id="1f6SnXbmrZFH42KmdfTv-43" value="" style="endArrow=classic;html=1;rounded=0;endSize=3;" edge="1" parent="1">
          <mxGeometry width="50" height="50" relative="1" as="geometry">
            <mxPoint x="202" y="328" as="sourcePoint" />
            <mxPoint x="162" y="328" as="targetPoint" />
          </mxGeometry>
        </mxCell>
        <mxCell id="1f6SnXbmrZFH42KmdfTv-44" value="" style="endArrow=classic;html=1;rounded=0;endSize=3;" edge="1" parent="1">
          <mxGeometry width="50" height="50" relative="1" as="geometry">
            <mxPoint x="132" y="328" as="sourcePoint" />
            <mxPoint x="142" y="328" as="targetPoint" />
          </mxGeometry>
        </mxCell>
        <mxCell id="1f6SnXbmrZFH42KmdfTv-45" value="" style="endArrow=none;html=1;rounded=0;" edge="1" parent="1">
          <mxGeometry width="50" height="50" relative="1" as="geometry">
            <mxPoint x="142" y="328" as="sourcePoint" />
            <mxPoint x="162" y="328" as="targetPoint" />
          </mxGeometry>
        </mxCell>
        <mxCell id="1f6SnXbmrZFH42KmdfTv-46" value="" style="endArrow=classic;html=1;rounded=0;endSize=3;" edge="1" parent="1">
          <mxGeometry width="50" height="50" relative="1" as="geometry">
            <mxPoint x="382" y="272" as="sourcePoint" />
            <mxPoint x="302" y="272" as="targetPoint" />
          </mxGeometry>
        </mxCell>
        <mxCell id="1f6SnXbmrZFH42KmdfTv-47" value="" style="endArrow=classic;html=1;rounded=0;endSize=3;" edge="1" parent="1">
          <mxGeometry width="50" height="50" relative="1" as="geometry">
            <mxPoint x="262" y="272" as="sourcePoint" />
            <mxPoint x="272" y="272" as="targetPoint" />
          </mxGeometry>
        </mxCell>
        <mxCell id="1f6SnXbmrZFH42KmdfTv-48" value="" style="endArrow=none;html=1;rounded=0;" edge="1" parent="1">
          <mxGeometry width="50" height="50" relative="1" as="geometry">
            <mxPoint x="272" y="272" as="sourcePoint" />
            <mxPoint x="302" y="272" as="targetPoint" />
          </mxGeometry>
        </mxCell>
        <mxCell id="1f6SnXbmrZFH42KmdfTv-49" value="" style="endArrow=classic;html=1;rounded=0;endSize=3;" edge="1" parent="1">
          <mxGeometry width="50" height="50" relative="1" as="geometry">
            <mxPoint x="282" y="258" as="sourcePoint" />
            <mxPoint x="272" y="258" as="targetPoint" />
          </mxGeometry>
        </mxCell>
        <mxCell id="1f6SnXbmrZFH42KmdfTv-50" value="" style="endArrow=classic;html=1;rounded=0;endSize=3;" edge="1" parent="1">
          <mxGeometry width="50" height="50" relative="1" as="geometry">
            <mxPoint x="172" y="258" as="sourcePoint" />
            <mxPoint x="252" y="258" as="targetPoint" />
          </mxGeometry>
        </mxCell>
        <mxCell id="1f6SnXbmrZFH42KmdfTv-51" value="" style="endArrow=none;html=1;rounded=0;" edge="1" parent="1">
          <mxGeometry width="50" height="50" relative="1" as="geometry">
            <mxPoint x="251" y="258" as="sourcePoint" />
            <mxPoint x="272" y="258" as="targetPoint" />
          </mxGeometry>
        </mxCell>
        <mxCell id="1f6SnXbmrZFH42KmdfTv-52" value="&lt;font face=&quot;Times New Roman&quot; style=&quot;font-size: 10px;&quot;&gt;Hold Time &lt;span style=&quot;font-size: 10px;&quot;&gt;&lt;i&gt;T&lt;/i&gt;&lt;sub style=&quot;font-size: 10px;&quot;&gt;h&lt;/sub&gt;&lt;/span&gt;&lt;/font&gt;" style="text;html=1;fillColor=none;align=center;verticalAlign=middle;whiteSpace=wrap;rounded=0;fontSize=10;strokeWidth=0;" vertex="1" parent="1">
          <mxGeometry x="302" y="248" width="90" height="30" as="geometry" />
        </mxCell>
        <mxCell id="1f6SnXbmrZFH42KmdfTv-53" value="&lt;font style=&quot;font-size: 10px;&quot;&gt;Data Out&lt;/font&gt;" style="text;html=1;align=center;verticalAlign=middle;resizable=0;points=[];autosize=1;strokeColor=none;fillColor=none;fontFamily=Times New Roman;fontSize=10;" vertex="1" parent="1">
          <mxGeometry x="12" y="351" width="70" height="30" as="geometry" />
        </mxCell>
        <mxCell id="1f6SnXbmrZFH42KmdfTv-54" value="&lt;font style=&quot;font-size: 10px;&quot;&gt;Pulse Width &lt;i style=&quot;font-size: 10px;&quot;&gt;W&lt;/i&gt;&lt;/font&gt;" style="text;html=1;align=center;verticalAlign=middle;resizable=0;points=[];autosize=1;strokeColor=none;fillColor=none;fontFamily=Times New Roman;fontSize=10;" vertex="1" parent="1">
          <mxGeometry x="112" y="180" width="90" height="30" as="geometry" />
        </mxCell>
        <mxCell id="1f6SnXbmrZFH42KmdfTv-55" value="Clock Period &lt;i style=&quot;font-size: 10px;&quot;&gt;T&lt;/i&gt;" style="text;html=1;align=center;verticalAlign=middle;resizable=0;points=[];autosize=1;strokeColor=none;fillColor=none;fontFamily=Times New Roman;fontSize=10;" vertex="1" parent="1">
          <mxGeometry x="317" y="186" width="100" height="30" as="geometry" />
        </mxCell>
        <mxCell id="1f6SnXbmrZFH42KmdfTv-56" value="&lt;font face=&quot;Times New Roman&quot; style=&quot;font-size: 10px;&quot;&gt;Setup Time &lt;span style=&quot;font-size: 10px;&quot;&gt;&lt;i&gt;T&lt;/i&gt;&lt;span style=&quot;font-size: 10px;&quot;&gt;&lt;sub style=&quot;font-size: 10px;&quot;&gt;su&lt;/sub&gt;&lt;/span&gt;&lt;/span&gt;&lt;/font&gt;" style="text;html=1;strokeColor=none;fillColor=none;align=center;verticalAlign=middle;whiteSpace=wrap;rounded=0;fontSize=10;" vertex="1" parent="1">
          <mxGeometry x="161" y="233" width="90" height="30" as="geometry" />
        </mxCell>
        <mxCell id="1f6SnXbmrZFH42KmdfTv-57" value="&lt;font face=&quot;Times New Roman&quot; style=&quot;font-size: 10px;&quot;&gt;Data-to-Q &lt;i style=&quot;font-size: 10px;&quot;&gt;T&lt;sub style=&quot;font-size: 10px;&quot;&gt;dq&lt;/sub&gt;&lt;/i&gt;&lt;/font&gt;" style="text;html=1;strokeColor=none;fillColor=none;align=center;verticalAlign=middle;whiteSpace=wrap;rounded=0;fontSize=10;" vertex="1" parent="1">
          <mxGeometry x="158" y="305" width="90" height="30" as="geometry" />
        </mxCell>
        <mxCell id="1f6SnXbmrZFH42KmdfTv-58" value="&lt;font face=&quot;Times New Roman&quot; style=&quot;font-size: 10px;&quot;&gt;Clock-to-Q &lt;span style=&quot;font-size: 10px;&quot;&gt;&lt;i&gt;T&lt;/i&gt;&lt;sub style=&quot;font-size: 10px;&quot;&gt;cq&lt;/sub&gt;&lt;/span&gt;&lt;/font&gt;" style="text;html=1;strokeColor=none;fillColor=none;align=center;verticalAlign=middle;whiteSpace=wrap;rounded=0;fontSize=10;" vertex="1" parent="1">
          <mxGeometry y="292" width="90" height="30" as="geometry" />
        </mxCell>
      </root>
    </mxGraphModel>
  </diagram>
</mxfile>
